<svg xmlns="http://www.w3.org/2000/svg" width="36" height="36" viewBox="0 0 36 36"><defs><style>.cls-1{fill:#236ea7;}.cls-2{fill:#fff;}</style></defs><title>folder_p_36</title><g id="Layer_1" data-name="Layer 1"><path class="cls-1" d="M15,5.5H6A3.06,3.06,0,0,0,3,8.63V27.38A3.06,3.06,0,0,0,6,30.5H30a3.06,3.06,0,0,0,3-3.12V11.75a3.06,3.06,0,0,0-3-3.12H18Z"/></g><g id="Letter_P" data-name="Letter P"><path class="cls-2" d="M17.19,20.06v3.5H15.14V13.61H19A4.5,4.5,0,0,1,21,14a2.93,2.93,0,0,1,1.31,1.17,3.17,3.17,0,0,1,.46,1.71,2.85,2.85,0,0,1-1,2.31,4.19,4.19,0,0,1-2.77.85Zm0-1.67H19A1.77,1.77,0,0,0,20.26,18a1.37,1.37,0,0,0,.43-1.09,1.62,1.62,0,0,0-.43-1.18,1.58,1.58,0,0,0-1.19-.47H17.19Z"/></g></svg>